<?xml version="1.0" encoding="UTF-8"?>
<svg id="Layer_1" data-name="Layer 1" xmlns="http://www.w3.org/2000/svg" viewBox="0 0 156.7 33.86">
  <defs>
    <style>
      .cls-1 {
        fill: #fff;
      }

      .cls-2 {
        fill: #a22538;
      }

      .cls-3 {
        fill: #082b5a;
      }
    </style>
  </defs>
  <path class="cls-3" d="m41.01,30.12c.29.27.43.6.43.99s-.14.72-.43.99c-.28.27-.63.4-1.05.4s-.76-.13-1.05-.4c-.28-.27-.43-.6-.43-.99s.14-.72.43-.99c.29-.27.63-.4,1.05-.4s.76.13,1.05.4m-.21.17c-.23-.22-.51-.34-.84-.34s-.61.11-.84.34c-.23.22-.34.5-.34.82s.11.6.34.82c.23.22.51.33.84.33s.61-.11.84-.33c.23-.22.34-.5.34-.82s-.11-.6-.34-.82m-1.48.02h.67c.18,0,.32.04.42.12.1.08.15.18.15.32,0,.15-.05.27-.15.35-.08.06-.18.1-.3.12l.48.71h-.3l-.43-.7h-.28v.7h-.26v-1.61Zm.26.7h.36c.12,0,.21-.02.27-.06.06-.04.09-.11.09-.2,0-.08-.03-.14-.09-.18-.06-.04-.15-.06-.27-.06h-.36v.5Z"/>
  <polygon class="cls-1" points="7.35 11.08 8.52 11.07 3.9 22.92 0 22.91 0 33.86 37.85 33.86 37.85 22.9 33.93 22.89 29.35 11.08 30.5 11.09 30.5 .14 7.35 .14 7.35 11.08"/>
  <path class="cls-2" d="m18.92,4.22l8.11,20.29s1.04,2.47,2.73,2.47h-5.9s.3.04.59-.43c.17-.27.03-.68.03-.68l-1.83-4.53h-7.43l-1.83,4.53s-.14.41.03.68c.3.48.59.43.59.43h-5.9c1.69,0,2.73-2.47,2.73-2.47L18.92,4.22Z"/>
  <polygon class="cls-3" points="18.93 4.2 26.24 4.2 26.24 7.02 23.2 7.02 31.19 26.88 33.55 26.88 33.55 29.8 23.65 29.8 23.65 26.96 20.87 26.96 20.87 32.54 36.49 32.54 36.49 24.22 32.99 24.23 27.36 9.76 29.13 9.76 29.13 1.46 18.93 1.46 8.73 1.46 8.73 9.76 10.49 9.76 4.87 24.21 1.36 24.22 1.36 32.54 16.98 32.54 16.98 26.96 14.2 26.96 14.2 29.8 4.31 29.8 4.31 26.88 6.67 26.88 14.65 7.02 11.62 7.02 11.62 4.2 18.93 4.2"/>
  <polygon class="cls-1" points="18.91 19.19 21.77 19.19 18.97 12.07 16.07 19.19 18.91 19.19"/>
  <rect class="cls-3" x="46.31" width=".68" height="33.69"/>
  <g>
    <path class="cls-3" d="m103.22,23.63c.39-.31.87-.47,1.44-.47,1.19,0,1.9.61,2.14,1.81h-4.35c.12-.58.38-1.03.77-1.34m5.34,2.09c0-.51-.1-.98-.29-1.41-.19-.43-.46-.81-.8-1.12-.34-.31-.75-.56-1.21-.73s-.97-.26-1.52-.26-1.08.08-1.55.24c-.47.16-.89.39-1.25.7-.27.24-.51.52-.72.85-.21.33-.37.67-.48,1.04-.11.37-.17.74-.17,1.11,0,.77.2,1.45.6,2.06.4.6.97,1.07,1.69,1.41.73.34,1.55.5,2.46.5.27,0,.54-.01.8-.04.27-.03.52-.07.76-.12.24-.06.49-.13.76-.23l.91-1.54c-.31.2-.6.36-.89.48-.28.12-.59.21-.91.27-.32.06-.66.09-1.01.09-.66,0-1.24-.12-1.74-.36-.5-.24-.89-.59-1.17-1.04-.28-.45-.43-1-.46-1.62h6.18v-.26Zm-11.33-3.53c-.73,0-1.37.09-1.92.28-.55.19-1.05.48-1.51.88-.91.81-1.37,1.79-1.37,2.95,0,.54.11,1.05.34,1.52.23.47.55.88.96,1.22.41.34.9.61,1.45.79.55.18,1.16.28,1.83.28.91,0,1.63-.1,2.15-.29l.99-1.58c-.28.18-.56.32-.85.44-.29.12-.57.2-.86.26s-.57.08-.86.08c-.65,0-1.23-.13-1.75-.39-.52-.26-.93-.63-1.23-1.1-.3-.47-.45-.99-.45-1.56,0-.53.12-1,.35-1.41.23-.41.56-.72,1-.94.43-.22.92-.33,1.47-.33.84,0,1.54.26,2.1.79v-1.67c-.6-.14-1.21-.2-1.83-.2m-12.71.22h-1.08c.22.16.37.29.45.4.08.1.13.23.16.38.02.15.03.42.03.82v4.28c0,.39-.01.66-.03.81-.02.15-.08.28-.16.39-.08.1-.23.24-.45.4h2.78c-.21-.16-.36-.3-.44-.4-.08-.1-.13-.24-.16-.4s-.04-.43-.04-.8v-3.27c0-.41.08-.72.22-.92.17-.22.39-.39.67-.52.28-.12.59-.19.93-.19s.68.06.98.19c.31.13.54.29.7.5.13.15.22.35.28.6.06.25.08.59.08,1.02v2.58c0,.35-.01.61-.04.78-.03.17-.08.31-.16.42-.08.11-.23.24-.45.4h2.81c-.3-.22-.48-.42-.54-.58-.07-.16-.1-.5-.1-1.02v-2.75c0-.61-.03-1.08-.08-1.38-.06-.31-.16-.58-.31-.81-.16-.22-.37-.43-.64-.6-.26-.18-.57-.31-.91-.41-.35-.1-.69-.14-1.03-.14-.5,0-.93.09-1.31.28-.37.19-.77.51-1.18.98v-1.35c-.2.2-.53.31-.99.31m-7.42,1.22c.39-.31.87-.47,1.44-.47,1.19,0,1.9.61,2.14,1.81h-4.35c.12-.58.38-1.03.77-1.34m5.34,2.09c0-.51-.1-.98-.29-1.41-.19-.43-.46-.81-.8-1.12-.34-.31-.75-.56-1.21-.73-.47-.18-.97-.26-1.52-.26s-1.08.08-1.55.24c-.47.16-.89.39-1.25.7-.27.24-.51.52-.72.85-.21.33-.37.67-.48,1.04-.11.37-.17.74-.17,1.11,0,.77.2,1.45.6,2.06.4.6.97,1.07,1.69,1.41s1.55.5,2.46.5c.27,0,.54-.01.81-.04.27-.03.52-.07.76-.12.24-.06.49-.13.76-.23l.91-1.54c-.31.2-.6.36-.89.48-.28.12-.59.21-.91.27-.32.06-.66.09-1.02.09-.66,0-1.24-.12-1.74-.36s-.89-.59-1.17-1.04-.43-1-.46-1.62h6.18v-.26Zm-11.02-6.02c-.21.19-.31.43-.31.7s.1.53.3.72c.2.2.44.3.74.3s.55-.1.75-.3c.2-.2.3-.44.3-.72,0-.27-.1-.5-.29-.7-.2-.2-.44-.3-.72-.3s-.55.1-.75.29m.54,2.71h-1.17c.22.16.37.29.45.4.08.1.13.23.16.38.02.15.04.42.04.82v4.28c0,.39-.01.66-.04.81-.02.15-.07.28-.16.39-.08.1-.23.24-.45.4h2.78c-.21-.16-.36-.3-.44-.4-.08-.1-.13-.24-.16-.4s-.04-.43-.04-.8v-6.19c-.2.2-.52.31-.98.31m-4.47-.22c-.72,0-1.36.09-1.92.28-.55.19-1.05.48-1.5.88-.91.81-1.37,1.79-1.37,2.95,0,.54.11,1.05.34,1.52.23.47.55.88.96,1.22.41.34.9.61,1.45.79.55.18,1.16.28,1.83.28.91,0,1.63-.1,2.15-.29l.99-1.58c-.28.18-.56.32-.85.44-.29.12-.57.2-.86.26-.28.06-.57.08-.86.08-.65,0-1.23-.13-1.75-.39-.52-.26-.93-.63-1.23-1.1-.3-.47-.45-.99-.45-1.56,0-.53.11-1,.35-1.41.23-.41.56-.72,1-.94s.92-.33,1.46-.33c.84,0,1.54.26,2.1.79v-1.67c-.6-.14-1.21-.2-1.83-.2m-9.34-3.24c-.85,0-1.58.12-2.21.35-.63.24-1.12.57-1.46,1-.34.43-.51.94-.51,1.52,0,.34.08.68.24,1.02s.37.62.63.86c.24.22.53.42.87.6.34.19.82.42,1.45.69.69.3,1.19.53,1.48.69.29.15.51.3.68.45.37.32.55.7.55,1.16,0,.31-.11.6-.33.85-.22.25-.52.45-.91.59-.39.15-.81.22-1.27.22-1.34,0-2.57-.43-3.69-1.29l.51,2.01c.53.18,1.03.31,1.49.39.46.08.95.12,1.48.12,1.49,0,2.66-.4,3.52-1.2.32-.3.57-.65.76-1.03.18-.38.28-.77.28-1.17,0-.35-.08-.68-.24-.98-.16-.31-.38-.56-.67-.78-.24-.2-.52-.38-.84-.55s-.85-.42-1.6-.76c-.7-.32-1.22-.57-1.56-.78-.34-.2-.58-.4-.72-.61-.14-.2-.21-.44-.21-.71,0-.45.2-.82.61-1.1.41-.28.94-.42,1.61-.42.49,0,.97.09,1.43.27.46.18.87.45,1.23.79v-1.85c-.86-.23-1.72-.35-2.56-.35"/>
    <path class="cls-3" d="m156.16,13.31c-.07-.16-.1-.5-.1-1.02V2.91c-.2.2-.53.31-.99.31h-1.16c.22.16.37.29.45.39.08.1.13.23.16.38.02.15.04.43.04.83v7.48c0,.39-.01.66-.04.81-.02.15-.07.28-.16.39-.08.1-.23.24-.45.4h2.78c-.29-.22-.47-.42-.54-.58m-5.57-.25c.09.23.26.41.51.57.2.12.41.2.64.25.22.05.54.09.94.12l.73-1.06c-.46-.01-.8-.1-1-.26-.19-.13-.31-.28-.36-.44-.05-.16-.07-.47-.07-.93v-2.09c0-.6-.02-1.01-.06-1.24-.04-.23-.13-.46-.28-.69-.47-.73-1.42-1.09-2.84-1.09-.4,0-.79.03-1.17.1l-1.11,1.63c.55-.25.98-.43,1.3-.51.32-.09.65-.13.99-.13.31,0,.59.04.84.13.25.09.44.21.57.36.13.16.2.34.2.54,0,.29-.13.51-.38.66s-.76.3-1.52.44c-1.05.19-1.79.41-2.21.63-.29.15-.51.37-.68.67-.17.3-.26.62-.26.96,0,.7.28,1.31.85,1.8.49.42,1.15.63,1.99.63.33,0,.64-.03.92-.1l.99-1.21c-.48.14-.9.21-1.26.21-.56,0-1-.12-1.31-.35-.31-.24-.47-.56-.47-.97,0-.64.4-1.06,1.21-1.25.61-.14,1-.23,1.17-.27.17-.05.33-.09.47-.14.14-.05.31-.12.5-.21v2.09c0,.53.04.91.13,1.13m-6.89-5.57c.28,0,.5.02.65.06.14.04.28.12.4.23v-1.46c-.16.07-.49.1-.99.1h-1.31v-2.42h-.65v.2c0,.91-.21,1.57-.62,1.99-.35.38-.81.61-1.38.7v.59h1.15v3.58c0,.52.01.91.05,1.17s.09.47.17.64c.08.17.21.34.39.52.47.47,1.04.71,1.72.71.21,0,.41-.03.61-.1l.87-1.15c-.25.09-.48.14-.7.14-.55,0-.98-.19-1.29-.56-.12-.15-.2-.32-.24-.53-.04-.2-.06-.53-.06-.99v-3.44h1.24Zm-11.47-1.07h-1.08c.22.16.37.29.45.4.08.11.13.23.15.38.02.15.04.42.04.82v4.28c0,.39-.01.66-.04.81-.02.15-.07.28-.15.39-.08.1-.23.24-.45.4h2.78c-.21-.16-.36-.3-.44-.4-.08-.1-.13-.24-.16-.4-.03-.17-.04-.43-.04-.8v-3.27c0-.41.08-.72.23-.92.17-.22.39-.39.67-.52.28-.12.59-.19.92-.19s.68.06.98.19c.31.13.54.29.7.5.13.15.22.35.28.6.06.25.09.59.09,1.02v2.58c0,.35-.01.61-.04.78s-.08.31-.16.42c-.08.11-.23.24-.45.4h2.81c-.3-.22-.48-.42-.54-.58-.07-.16-.1-.5-.1-1.02v-2.75c0-.62-.03-1.08-.09-1.38-.06-.31-.16-.58-.31-.81-.16-.23-.37-.43-.64-.6-.26-.18-.57-.31-.91-.41-.35-.09-.69-.14-1.03-.14-.5,0-.93.09-1.31.28-.37.19-.77.51-1.18.98v-1.35c-.2.2-.53.31-.99.31m-7.42,1.22c.39-.32.87-.47,1.44-.47,1.19,0,1.9.6,2.14,1.82h-4.34c.12-.58.38-1.03.77-1.34m5.34,2.09c0-.51-.1-.98-.29-1.41-.19-.43-.46-.81-.8-1.12-.34-.31-.75-.56-1.21-.73-.47-.18-.98-.26-1.52-.26s-1.08.08-1.55.24c-.47.16-.89.39-1.25.7-.27.24-.52.52-.72.85-.21.33-.37.68-.48,1.04-.11.37-.17.74-.17,1.11,0,.77.2,1.45.6,2.06.4.6.97,1.08,1.69,1.41.73.34,1.55.5,2.46.5.27,0,.54-.01.8-.04.27-.02.52-.07.76-.12.24-.06.49-.13.76-.23l.91-1.55c-.3.2-.6.36-.89.48-.28.12-.59.21-.91.27-.32.06-.66.09-1.01.09-.66,0-1.24-.12-1.74-.36-.5-.24-.89-.59-1.17-1.04-.27-.45-.43-1-.46-1.62h6.18v-.26Zm-21.09-3.32h-1.17c.22.16.37.29.45.4.08.11.13.23.15.38.02.15.03.42.03.82v4.28c0,.39-.01.66-.03.81-.02.15-.08.28-.15.39-.08.1-.23.24-.45.4h2.78c-.21-.15-.35-.28-.44-.39-.08-.11-.14-.24-.16-.41-.03-.17-.04-.43-.04-.8v-2.87c0-.33.02-.58.06-.75.04-.17.12-.34.23-.49.16-.23.38-.41.66-.53.28-.12.58-.19.92-.19.26,0,.52.05.77.14.26.09.47.23.63.4.34.34.51.9.51,1.66v2.64c0,.36-.01.62-.04.79-.03.17-.08.31-.15.41-.08.1-.23.23-.44.39h2.8c-.3-.23-.49-.42-.55-.58-.07-.16-.1-.5-.1-1.01v-2.77c0-.38.01-.64.03-.78.02-.15.07-.29.15-.44.15-.28.39-.5.69-.66.31-.16.64-.24,1-.24.64,0,1.14.21,1.5.63.15.19.26.43.33.69.07.26.1.62.1,1.07v2.5c0,.36-.01.62-.04.79-.03.17-.08.31-.16.42-.08.1-.23.24-.46.39h2.92c-.21-.08-.37-.18-.48-.29-.11-.11-.18-.26-.22-.47-.04-.2-.06-.48-.06-.84v-2.9c0-.52-.03-.93-.09-1.23-.06-.3-.16-.56-.31-.78-.22-.37-.57-.65-1.04-.87-.47-.21-.99-.32-1.57-.32-.36,0-.7.05-1,.14-.3.09-.58.24-.84.44-.25.2-.52.48-.81.84-.32-.5-.68-.86-1.08-1.08-.4-.23-.9-.34-1.48-.34-.53,0-.99.1-1.37.29-.38.19-.74.52-1.09.98v-1.36c-.18.2-.48.31-.9.31m-9.28,0h-1.08c.22.16.37.29.45.4.08.11.13.23.15.38.02.15.03.42.03.82v4.28c0,.39-.01.66-.03.81-.02.15-.08.28-.15.39-.08.1-.23.24-.45.4h2.78c-.21-.16-.36-.3-.44-.4-.08-.1-.13-.24-.16-.4-.03-.17-.04-.43-.04-.8v-3.27c0-.41.07-.72.22-.92.17-.22.39-.39.67-.52.28-.12.59-.19.93-.19s.67.06.98.19c.31.13.54.29.7.5.13.15.22.35.28.6.06.25.09.59.09,1.02v2.58c0,.35-.01.61-.04.78s-.08.31-.16.42c-.08.11-.23.24-.45.4h2.81c-.3-.22-.48-.42-.54-.58-.06-.16-.1-.5-.1-1.02v-2.75c0-.62-.03-1.08-.09-1.38-.06-.31-.16-.58-.31-.81-.16-.23-.37-.43-.64-.6-.26-.18-.57-.31-.91-.41-.35-.09-.69-.14-1.03-.14-.5,0-.93.09-1.31.28-.37.19-.77.51-1.18.98v-1.35c-.2.2-.53.31-.99.31m-5.03,1.25c.42.25.74.61.97,1.07.23.46.35.99.35,1.59,0,.53-.11,1-.33,1.4-.22.41-.53.72-.93.94-.4.23-.85.34-1.35.34-.38,0-.73-.07-1.06-.22-.33-.15-.62-.36-.87-.64-.25-.28-.45-.61-.58-.98-.13-.38-.2-.77-.2-1.18,0-.52.11-.99.32-1.4.22-.41.52-.74.91-.96.39-.23.83-.34,1.34-.34.55,0,1.03.13,1.45.38m-2.31-1.37c-.34.07-.67.16-.97.3-.3.13-.6.3-.87.5-.49.37-.88.83-1.16,1.38-.28.55-.42,1.12-.42,1.72,0,.73.18,1.4.56,2,.37.6.89,1.07,1.55,1.41.66.34,1.39.51,2.2.51s1.58-.18,2.27-.53,1.23-.84,1.62-1.45c.39-.61.59-1.29.59-2.03,0-.54-.11-1.06-.33-1.56-.22-.5-.55-.93-.97-1.3-.78-.69-1.75-1.04-2.91-1.04-.42,0-.79.03-1.14.1m-6.26,7.2c-.08-.1-.13-.24-.16-.4-.03-.17-.04-.43-.04-.8v-2.67c0-.66.12-1.16.36-1.48.15-.2.35-.37.61-.48.26-.12.54-.18.84-.18.34,0,.61.09.79.26v-1.49c-.23-.04-.43-.06-.58-.06-.43,0-.82.11-1.17.32-.34.21-.62.52-.85.93v-1.34c-.2.2-.52.31-.98.31h-1.17c.22.16.37.29.45.4.08.11.13.23.16.38.02.15.04.42.04.82v4.28c0,.39-.01.66-.04.81-.02.15-.07.28-.16.39-.08.1-.23.24-.45.4h2.78c-.21-.16-.36-.3-.44-.4m-5.53-9.78c-.21.19-.31.43-.31.7s.1.53.3.72c.2.2.44.3.73.3s.55-.1.75-.3c.2-.2.3-.44.3-.72,0-.27-.1-.5-.3-.7-.2-.2-.44-.3-.72-.3s-.55.1-.75.29m.54,2.71h-1.17c.22.16.37.29.45.4.08.11.13.23.15.38.02.15.04.42.04.82v4.28c0,.39-.01.66-.04.81-.02.15-.07.28-.15.39-.08.1-.23.24-.45.4h2.78c-.21-.16-.36-.3-.44-.4-.08-.1-.13-.24-.16-.4-.03-.17-.04-.43-.04-.8v-6.19c-.2.2-.52.31-.98.31m-8.56.46c-.11-.26-.18-.51-.21-.75-.18.12-.35.2-.51.24-.15.04-.39.06-.71.06h-1.12c.32.18.54.33.67.43.13.1.24.23.33.38.09.15.24.44.43.86l1.97,4.38c.16.36.3.65.43.84.13.2.3.38.51.54.21.16.56.38,1.03.64l3.82-8.08h-2.39c.22.15.36.28.44.38.07.1.11.25.11.43,0,.22-.1.54-.29.95l-2.01,4.34-2.52-5.64Zm-9.4-.46h-1.08c.22.16.37.29.45.4.08.11.13.23.16.38.02.15.03.42.03.82v4.28c0,.39-.01.66-.03.81-.02.15-.08.28-.16.39-.08.1-.23.24-.45.4h2.78c-.21-.16-.36-.3-.44-.4-.08-.1-.13-.24-.16-.4-.03-.17-.04-.43-.04-.8v-3.27c0-.41.08-.72.23-.92.17-.22.39-.39.67-.52.28-.12.59-.19.93-.19s.67.06.98.19c.31.13.54.29.7.5.13.15.22.35.28.6.06.25.08.59.08,1.02v2.58c0,.35-.01.61-.04.78s-.08.31-.16.42c-.08.11-.23.24-.45.4h2.81c-.3-.22-.47-.42-.54-.58-.07-.16-.1-.5-.1-1.02v-2.75c0-.62-.03-1.08-.08-1.38-.06-.31-.16-.58-.31-.81-.16-.23-.37-.43-.64-.6-.26-.18-.57-.31-.91-.41-.35-.09-.69-.14-1.03-.14-.5,0-.93.09-1.31.28-.37.19-.77.51-1.18.98v-1.35c-.2.2-.53.31-.99.31m-5.41,2.26c.38,0,.67.03.85.1.19.07.34.18.47.35v-1.72c-.15.07-.34.1-.57.1h-2.25v-3.02c.44-.08,1.02-.11,1.73-.11.53,0,.94.05,1.23.14.29.09.56.26.82.51v-1.89c-.17.07-.38.1-.64.1h-5.59c.21.11.37.24.47.38.1.14.18.34.22.59.04.25.06.62.06,1.1v6.51c0,.48-.02.84-.06,1.1-.04.26-.11.46-.22.61-.11.15-.27.28-.47.38h7.01l.78-2.12c-.45.33-.93.57-1.44.71-.51.14-1.12.21-1.84.21-.66,0-1.35-.06-2.07-.17v-3.85h1.49Z"/>
  </g>
</svg>